<svg width="42" height="43" viewBox="0 0 42 43" fill="none" xmlns="http://www.w3.org/2000/svg">
<path d="M3.51366 28.1419C3.56176 28.1266 3.61051 28.1113 3.65988 28.0961C5.10551 27.6506 7.04798 27.2716 9.10844 27.4838L9.75377 25.6493C7.47781 24.1781 4.66872 21.3945 2.28266 16.1646C2.77591 16.3768 3.3343 16.6368 3.93297 16.9494C6.08308 18.0721 8.70718 19.8494 10.7161 22.4845L12.4829 21.6416C11.5254 17.7103 11.3127 11.7452 14.6072 3.38914C15.0649 4.43954 15.6189 5.86943 16.1042 7.56689C17.17 11.2947 17.8853 16.2458 16.5897 21.2886L18.4826 21.9191C20.8619 16.157 25.9845 11.9132 30.6281 9.08477C32.9363 7.67891 35.0936 6.64241 36.6732 5.9579C36.8269 5.8913 36.975 5.82806 37.1172 5.76816C32.0126 17.7731 25.4521 22.5355 21.0994 24.4181L21.7399 26.3058C26.7674 25.0432 31.69 25.7632 35.3919 26.8246C37.0683 27.3052 38.4808 27.8521 39.5212 28.3047C31.1657 31.5987 25.201 31.386 21.2699 30.4285L20.427 32.1954C23.0621 34.2043 24.8394 36.8284 25.9621 38.9785C26.2747 39.5772 26.5347 40.1356 26.7469 40.6288C21.517 38.2428 18.7334 35.4337 17.2622 33.1577L15.4276 33.803C15.6399 35.8635 15.2609 37.806 14.8154 39.2516C14.8002 39.301 14.7849 39.3497 14.7696 39.3978C13.5707 36.0142 13.612 33.5318 13.9709 31.8805L14.6941 28.5536L12.2866 30.961L4.87813 38.3695L4.54199 38.0333L11.9504 30.6249L14.3579 28.2174L11.0309 28.9406C9.3797 29.2995 6.89729 29.3408 3.51366 28.1419Z" stroke="#62FFD0" stroke-width="2"/>
</svg>
