<svg width="1180" height="93" viewBox="0 0 1180 93" fill="none" xmlns="http://www.w3.org/2000/svg">
<path d="M577 46L608 46" stroke="#62FFD0" stroke-width="4" stroke-miterlimit="10"/>
<path fill-rule="evenodd" clip-rule="evenodd" d="M670.108 90.2521C670.114 90.2521 670.12 90.2521 670.126 90.2521C670.132 90.2521 670.138 90.2521 670.144 90.2521C694.506 90.2426 714.252 70.4903 714.252 46.1261C714.252 21.7559 694.496 2 670.126 2C670.126 2 670.126 2 670.126 2C645.756 2.00002 626 21.7559 626 46.1261C626 70.4903 645.746 90.2425 670.108 90.2521ZM667.68 7.15949C663.217 8.13946 658.898 11.7906 655.431 17.8658C654.473 19.5456 653.596 21.3859 652.816 23.3644H667.68V7.15949ZM647.595 23.3644C648.61 20.4971 649.815 17.8392 651.183 15.4414C652.336 13.4212 653.626 11.5556 655.037 9.89764C648.23 12.7361 642.394 17.4372 638.165 23.3644H647.595ZM646.101 28.2557C644.861 33.026 644.108 38.2309 643.934 43.681H630.966C631.306 38.1514 632.792 32.9315 635.188 28.2557H646.101ZM648.828 43.681C649.017 38.134 649.846 32.9192 651.17 28.2557H667.68V43.681H648.828ZM643.934 48.5724H630.966C631.307 54.1048 632.794 59.3271 635.192 64.0046H646.103C644.862 59.2325 644.108 54.0252 643.934 48.5724ZM651.172 64.0046C649.847 59.3394 649.017 54.1222 648.828 48.5724H667.68V64.0046H651.172ZM647.598 68.896H638.171C642.399 74.8193 648.233 79.5174 655.037 82.3545C653.626 80.6965 652.336 78.831 651.183 76.8107C649.816 74.4153 648.613 71.7601 647.598 68.896ZM667.68 85.0927C663.217 84.1127 658.898 80.4615 655.431 74.3864C654.474 72.7089 653.598 70.8713 652.82 68.896H667.68V85.0927ZM672.571 7.15938V23.3644H687.436C686.656 21.3859 685.779 19.5456 684.821 17.8658C681.354 11.7904 677.035 8.1392 672.571 7.15938ZM692.657 23.3644C691.642 20.4971 690.437 17.8392 689.069 15.4414C687.916 13.4211 686.626 11.5555 685.215 9.89757C692.022 12.736 697.858 17.4372 702.087 23.3644H692.657ZM689.083 28.2557H672.571V43.681H691.424C691.235 38.134 690.406 32.9192 689.083 28.2557ZM696.318 43.681C696.144 38.2309 695.391 33.026 694.151 28.2557H705.064C707.461 32.9315 708.946 38.1514 709.286 43.681H696.318ZM691.424 48.5724H672.571V64.0046H689.08C690.405 59.3394 691.235 54.1222 691.424 48.5724ZM694.149 64.0046C695.39 59.2325 696.144 54.0252 696.318 48.5724H709.286C708.945 54.1048 707.459 59.3271 705.06 64.0046H694.149ZM692.654 68.896H702.081C697.853 74.8193 692.019 79.5175 685.215 82.3546C686.626 80.6966 687.916 78.831 689.069 76.8107C690.436 74.4153 691.639 71.7601 692.654 68.896ZM687.432 68.896C686.654 70.8713 685.778 72.7089 684.821 74.3864C681.354 80.4618 677.035 84.1129 672.571 85.0928V68.896H687.432Z" fill="#62FFD0"/>
<path d="M729 46L1180 46" stroke="#62FFD0" stroke-width="4" stroke-miterlimit="10"/>
<path fill-rule="evenodd" clip-rule="evenodd" d="M513.029 23.4345C514.13 23.4938 515.211 23.6315 516.265 23.8421L525.115 2.40943L530.469 4.63546L521.769 25.7034C522.824 26.2191 523.832 26.814 524.788 27.4804L540.706 11.5067L544.804 15.6185L529.096 31.3813C529.895 32.3149 530.621 33.3138 531.264 34.369L551.643 25.8924L553.862 31.2642L533.632 39.6786C533.991 40.8757 534.256 42.1141 534.416 43.385H558.039V49.1999H534.416C534.283 50.2576 534.077 51.2927 533.805 52.3002L555.517 61.3287L553.299 66.7007L531.585 57.6716C530.865 58.9305 530.029 60.1141 529.092 61.2079L544.804 76.9745L540.706 81.0863L524.783 65.1078C523.828 65.7734 522.82 66.3676 521.767 66.8827L530.469 87.9499L525.116 90.1765L516.262 68.7433C515.209 68.9536 514.129 69.0911 513.029 69.1504V92.5924H507.234V68.7278C506.245 68.5267 505.28 68.2615 504.341 67.9366L495.155 90.1765L489.802 87.9499L499.139 65.3456C498.368 64.8289 497.629 64.2662 496.928 63.6616L479.564 81.0863L475.467 76.9745L493.041 59.3389C492.546 58.625 492.092 57.8816 491.679 57.1117L468.619 66.7007L466.401 61.3287L489.61 51.6776C489.416 50.8676 489.264 50.0409 489.158 49.1999H464V43.385H489.158C489.264 42.5465 489.415 41.7222 489.609 40.9146L466.401 31.2643L468.619 25.8922L491.676 35.4797C492.088 34.7093 492.543 33.9652 493.037 33.2508L475.467 15.6185L479.564 11.5067L496.924 28.927C497.624 28.323 498.361 27.7609 499.131 27.2446L489.802 4.63476L495.156 2.41013L504.333 24.6513C505.274 24.325 506.242 24.0588 507.234 23.8571V0H513.029V23.4345ZM511.787 29.0828C502.316 29.0828 494.638 36.7878 494.638 46.2924C494.638 55.7971 502.316 63.5021 511.787 63.5021C521.259 63.5021 528.937 55.7971 528.937 46.2924C528.937 36.7878 521.259 29.0828 511.787 29.0828Z" fill="#62FFD0"/>
<path d="M0 46L447 46" stroke="#62FFD0" stroke-width="4" stroke-miterlimit="10"/>
</svg>
