<svg width="47" height="47" viewBox="0 0 47 47" fill="none" xmlns="http://www.w3.org/2000/svg">
<path d="M45.12 0H1.88C0.840125 0 0 0.840125 0 1.88V45.12C0 46.1599 0.840125 47 1.88 47H45.12C46.1599 47 47 46.1599 47 45.12V1.88C47 0.840125 46.1599 0 45.12 0ZM39.6915 13.7181H35.9374C32.994 13.7181 32.4241 15.1164 32.4241 17.1726V21.7022H39.4506L38.5341 28.7934H32.4241V47H25.098V28.7993H18.9704V21.7022H25.098V16.4735C25.098 10.4046 28.8051 7.097 34.2219 7.097C36.8186 7.097 39.0452 7.29088 39.6974 7.379V13.7181H39.6915Z" fill="white"/>
</svg>
