<svg width="48" height="39" viewBox="0 0 48 39" fill="none" xmlns="http://www.w3.org/2000/svg">
<path d="M47.8065 4.58824C46.0468 5.39118 44.1501 5.91882 42.1849 6.17118C44.1958 4.95529 45.7498 3.02824 46.481 0.711176C44.5843 1.85824 42.4819 2.66118 40.2653 3.12C38.46 1.14706 35.9234 0 33.044 0C27.6738 0 23.2862 4.40471 23.2862 9.84176C23.2862 10.6218 23.3776 11.3788 23.5376 12.09C15.4023 11.6771 8.15818 7.75412 3.3364 1.81235C2.49087 3.25765 2.01098 4.95529 2.01098 6.74471C2.01098 10.1629 3.72488 13.1912 6.37572 14.9118C4.75322 14.9118 3.24499 14.4529 1.91957 13.7647V13.8335C1.91957 18.6053 5.30167 22.5971 9.78067 23.4918C8.34291 23.8885 6.83284 23.9435 5.37023 23.6524C5.9909 25.608 7.20647 27.3193 8.84606 28.5455C10.4856 29.7718 12.4668 30.4514 14.511 30.4888C11.0459 33.2429 6.75051 34.7316 2.33091 34.71C1.55394 34.71 0.776969 34.6641 0 34.5724C4.34189 37.3712 9.50645 39 15.0366 39C33.044 39 42.939 23.9965 42.939 10.9888C42.939 10.5529 42.939 10.14 42.9161 9.70412C44.8357 8.32765 46.481 6.58412 47.8065 4.58824Z" fill="white"/>
</svg>
