<svg width="177" height="136" viewBox="0 0 177 136" fill="none" xmlns="http://www.w3.org/2000/svg">
<path d="M12.444 103.42C6.01945 103.42 1.49512 108.456 1.49512 114.9C1.49512 121.207 6.10994 126.38 12.8512 126.38C19.8187 126.38 22.669 121.842 23.1667 119.982H20.4068C19.7734 120.98 17.8732 123.703 12.8512 123.703C7.69346 123.703 4.39069 119.619 4.39069 114.9V114.855H23.4382C23.3477 108.275 18.9138 103.42 12.444 103.42ZM12.444 105.915C16.6516 105.915 19.4567 108.547 20.3164 112.404H4.57167C5.38605 108.593 8.19114 105.915 12.444 105.915Z" fill="white"/>
<path d="M48.3906 121.026V136H51.2409V103.964H48.3906V108.547C47.8477 107.186 45.1331 103.42 39.7491 103.42C33.596 103.42 28.8454 108.093 28.8454 114.9C28.8454 121.706 33.596 126.38 39.7491 126.38C45.2235 126.38 47.8024 122.523 48.3906 121.026ZM48.4811 114.9C48.4811 119.71 45.0426 123.703 40.1563 123.703C35.1343 123.703 31.7863 119.71 31.7863 114.9C31.7863 110.045 35.1343 106.097 40.1563 106.097C45.0426 106.097 48.4811 110.045 48.4811 114.9Z" fill="white"/>
<path d="M69.9367 126.38C76.0445 126.38 79.8902 122.342 79.8902 116.579V103.964H77.0399V116.17C77.0399 120.708 74.4158 123.658 69.8914 123.658C65.3671 123.658 62.7882 120.708 62.7882 116.17V103.964H59.9379V116.579C59.9379 122.342 63.6931 126.38 69.9367 126.38Z" fill="white"/>
<path d="M88.6201 125.836H91.4251V103.964H88.6201V125.836Z" fill="white"/>
<path d="M138.904 103.42C132.57 103.42 127.593 108.411 127.593 114.9C127.593 121.434 132.57 126.38 138.904 126.38C145.238 126.38 150.215 121.434 150.215 114.9C150.215 108.411 145.238 103.42 138.904 103.42ZM138.904 123.703C134.018 123.703 130.534 119.801 130.534 114.9C130.534 110.045 134.018 106.052 138.904 106.052C143.836 106.052 147.319 109.999 147.319 114.9C147.319 119.846 143.836 123.703 138.904 123.703Z" fill="white"/>
<path d="M173.516 125.836H177L167.906 114.809L177 103.964H173.562L166.187 112.767L158.903 103.964H155.193L164.377 114.945L155.238 125.836H158.631L166.097 116.942L173.516 125.836Z" fill="white"/>
<path d="M110.135 103.431C104.027 103.431 100.181 107.47 100.181 113.233V125.847H103.032V113.641C103.032 109.103 105.656 106.154 110.18 106.154C114.705 106.154 117.283 109.103 117.283 113.641V125.847H120.134V113.233C120.134 107.47 116.379 103.431 110.135 103.431Z" fill="white"/>
<path fill-rule="evenodd" clip-rule="evenodd" d="M61.2662 31.5501C62.4879 32.9377 63.5295 34.4876 64.3543 36.1632L86.9553 26.8024L87.9862 29.2875L65.3846 38.6485C65.9717 40.3708 66.3413 42.1937 66.4608 44.0844H92.9007C93.5703 21.4595 112.136 3.32396 134.941 3.32396C158.17 3.32396 177 22.1396 177 45.3499C177 68.5508 158.185 87.3606 134.969 87.3758L134.941 87.3758L134.911 87.3758C112.173 87.3601 93.6571 69.3154 92.9057 46.7745H66.4607C66.3411 48.6682 65.9704 50.4939 65.3817 52.2187L87.9862 61.578L86.9556 64.0632L64.3503 54.7035C63.5253 56.3776 62.484 57.926 61.2628 59.3124L78.5694 76.6054L76.6657 78.5076L59.3591 61.2146C57.9711 62.4354 56.4208 63.4762 54.7446 64.3007L64.114 86.8868L61.6269 87.9169L52.2577 65.3311C50.5321 65.9189 48.7056 66.2891 46.811 66.4086V90.8659H44.1188V66.4086C42.2267 66.2892 40.4025 65.9199 38.6788 65.3333L29.3106 87.9169L26.8235 86.8868L36.1916 64.3038C34.5147 63.4796 32.9636 62.4389 31.5749 61.2182L14.2718 78.5076L12.3681 76.6054L29.6707 59.3165C28.4479 57.9291 27.4054 56.3793 26.5796 54.7036L3.9745 64.0632L2.94389 61.578L25.5482 52.2187C24.9595 50.4939 24.5889 48.6683 24.4692 46.7745H0V44.0844H24.4692C24.5887 42.1928 24.9586 40.3691 25.5461 38.646L2.94389 29.2876L3.9745 26.8024L26.5768 36.1608C27.4022 34.4845 28.4446 32.934 29.6673 31.546L12.3681 14.2605L14.2718 12.3583L31.571 29.6438C32.9585 28.4236 34.5081 27.3831 36.1835 26.5588L26.8232 3.97102L29.3107 2.94187L38.6703 25.5282C40.3964 24.94 42.2236 24.5696 44.1188 24.45V0H46.811V24.45C48.7065 24.5696 50.5338 24.94 52.2601 25.5284L61.6268 2.94158L64.1139 3.97137L54.7469 26.559C56.4237 27.3841 57.9746 28.4257 59.363 29.6474L76.6657 12.3583L78.5694 14.2605L61.2662 31.5501ZM45.465 27.0978C35.3328 27.0978 27.119 35.3051 27.119 45.4293C27.119 55.5535 35.3328 63.7608 45.465 63.7608C55.5971 63.7608 63.8109 55.5535 63.8109 45.4293C63.8109 35.3051 55.5971 27.0978 45.465 27.0978ZM99.962 26.6436C97.1481 31.8862 95.4801 37.8347 95.2928 44.1546H110.435C110.536 37.887 111.431 31.9498 112.961 26.6436H99.962ZM101.355 24.2524H113.708C114.736 21.2003 115.982 18.3901 117.412 15.8859C119.493 12.2435 121.997 9.19676 124.823 7.01631C114.985 9.60189 106.642 15.8681 101.355 24.2524ZM115.456 26.6436C113.876 31.8784 112.934 37.8232 112.828 44.1546H133.744V26.6436H115.456ZM133.744 24.2524H116.239C117.167 21.6354 118.26 19.2262 119.491 17.0711C123.326 10.3552 128.366 6.29945 133.744 5.77358V24.2524ZM136.137 26.6436V44.1546H157.053C156.947 37.8232 156.005 31.8784 154.425 26.6436H136.137ZM153.642 24.2524H136.137V5.77365C141.515 6.2998 146.555 10.3555 150.39 17.0711C151.621 19.2262 152.714 21.6354 153.642 24.2524ZM156.92 26.6436C158.45 31.9498 159.345 37.887 159.446 44.1546H174.589C174.402 37.8347 172.734 31.8862 169.92 26.6436H156.92ZM168.527 24.2524H156.173C155.145 21.2003 153.899 18.3901 152.469 15.8859C150.388 12.2433 147.883 9.1964 145.058 7.01593C154.896 9.60127 163.24 15.8677 168.527 24.2524ZM124.823 83.6834C114.988 81.0986 106.647 74.8354 101.36 66.4549H113.71C114.738 69.5041 115.983 72.3118 117.412 74.8139C119.493 78.4562 121.997 81.503 124.823 83.6834ZM95.2928 46.5458C95.4803 52.8685 97.1498 58.8195 99.9661 64.0637H112.963C111.432 58.7558 110.536 52.8161 110.435 46.5458H95.2928ZM119.491 73.6287C118.261 71.4757 117.169 69.069 116.242 66.4549H133.744V84.9262C128.366 84.4003 123.326 80.3446 119.491 73.6287ZM115.458 64.0637H133.744V46.5458H112.828C112.934 52.88 113.877 58.8273 115.458 64.0637ZM136.137 84.9261V66.4549H153.639C152.712 69.069 151.62 71.4757 150.39 73.6287C146.555 80.3443 141.515 84.4 136.137 84.9261ZM136.137 64.0637H154.423C156.004 58.8273 156.947 52.88 157.053 46.5458H136.137V64.0637ZM152.469 74.8139C153.898 72.3118 155.143 69.5041 156.171 66.4549H168.522C163.235 74.8358 154.893 81.0992 145.058 83.6838C147.883 81.5033 150.388 78.4565 152.469 74.8139ZM156.918 64.0637H169.916C172.732 58.8195 174.402 52.8685 174.589 46.5458H159.446C159.345 52.8161 158.449 58.7558 156.918 64.0637Z" fill="white"/>
</svg>
