<svg width="109" height="56" viewBox="0 0 109 56" fill="none" xmlns="http://www.w3.org/2000/svg">
<path fill-rule="evenodd" clip-rule="evenodd" d="M37.7289 19.4441C38.4813 20.2993 39.1227 21.2544 39.6306 22.2871L53.5487 16.5181L54.1836 18.0497L40.2651 23.8188C40.6266 24.8802 40.8542 26.0036 40.9278 27.1689H57.21C57.6224 13.2253 69.0556 2.04853 83.0993 2.04853C97.4038 2.04853 109 13.6445 109 27.9488C109 42.2473 97.4132 53.8397 83.1166 53.849L83.099 53.8491L83.081 53.849C69.0786 53.8394 57.6758 42.7186 57.2131 28.8268H40.9278C40.8541 29.9939 40.6259 31.119 40.2633 32.182L54.1836 37.9501L53.5489 39.4817L39.6282 33.7134C39.1201 34.7451 38.4789 35.6994 37.7268 36.5538L48.3846 47.2113L47.2122 48.3836L36.5545 37.7261C35.6997 38.4785 34.745 39.1199 33.7128 39.628L39.4826 53.5477L37.951 54.1825L32.1813 40.2631C31.1187 40.6254 29.9939 40.8535 28.8271 40.9271V56H27.1692V40.9271C26.004 40.8535 24.8806 40.6259 23.8192 40.2644L18.05 54.1825L16.5184 53.5477L22.2875 39.6299C21.2548 39.122 20.2996 38.4806 19.4444 37.7283L8.78887 48.3836L7.61654 47.2113L18.2718 36.5563C17.5188 35.7012 16.8768 34.7461 16.3683 33.7134L2.44757 39.4817L1.81291 37.9501L15.7331 32.182C15.3705 31.119 15.1423 29.9939 15.0686 28.8268H0V27.1689H15.0686C15.1422 26.0031 15.37 24.8792 15.7318 23.8172L1.81291 18.0497L2.44757 16.5181L16.3665 22.2856C16.8748 21.2525 17.5167 20.297 18.2697 19.4416L7.61654 8.78862L8.78887 7.61631L19.442 18.2693C20.2965 17.5172 21.2508 16.876 22.2825 16.368L16.5183 2.44731L18.0501 1.81305L23.8139 15.7328C24.8769 15.3703 26.0021 15.1421 27.1692 15.0684V0H28.8271V15.0684C29.9944 15.1421 31.1197 15.3703 32.1827 15.7329L37.951 1.81287L39.4826 2.44753L33.7142 16.3681C34.7468 16.8766 35.7019 17.5186 36.5569 18.2715L47.2122 7.61631L48.3846 8.78862L37.7289 19.4441ZM27.9982 16.7002C21.7586 16.7002 16.7004 21.7583 16.7004 27.9978C16.7004 34.2372 21.7586 39.2953 27.9982 39.2953C34.2378 39.2953 39.296 34.2372 39.296 27.9978C39.296 21.7583 34.2378 16.7002 27.9982 16.7002ZM61.5586 16.4203C59.8257 19.6512 58.7985 23.3172 58.6831 27.2121H68.0079C68.0703 23.3495 68.6216 19.6905 69.5637 16.4203H61.5586ZM62.4166 14.9466H70.0234C70.6566 13.0656 71.4241 11.3337 72.3048 9.79037C73.5859 7.54558 75.1283 5.66789 76.8682 4.3241C70.8101 5.91757 65.6719 9.7794 62.4166 14.9466ZM71.1001 16.4203C70.1271 19.6464 69.5469 23.3102 69.4818 27.2121H82.3623V16.4203H71.1001ZM82.3623 14.9466H71.5825C72.1536 13.3337 72.8268 11.849 73.5848 10.5208C75.9468 6.38182 79.0503 3.88231 82.3623 3.55822V14.9466ZM83.836 16.4203V27.2121H96.7161C96.651 23.3102 96.0709 19.6464 95.0978 16.4203H83.836ZM94.6154 14.9466H83.836V3.55826C87.1479 3.88252 90.2512 6.382 92.6131 10.5208C93.3711 11.849 94.0444 13.3337 94.6154 14.9466ZM96.6342 16.4203C97.5763 19.6905 98.1277 23.3495 98.19 27.2121H107.515C107.4 23.3172 106.373 19.6512 104.64 16.4203H96.6342ZM103.782 14.9466H96.1745C95.5413 13.0656 94.7738 11.3337 93.8931 9.79037C92.612 7.54545 91.0695 5.66767 89.3294 4.32386C95.3879 5.91719 100.526 9.77915 103.782 14.9466ZM76.8682 51.5735C70.8119 49.9805 65.675 46.1205 62.4195 40.9557H70.025C70.6579 42.8349 71.4248 44.5652 72.3048 46.1072C73.5859 48.352 75.1282 50.2297 76.8682 51.5735ZM58.6831 28.6858C58.7986 32.5825 59.8267 36.25 61.5611 39.482H69.565C68.6222 36.2107 68.0703 32.5502 68.0079 28.6858H58.6831ZM73.5848 45.3768C72.8276 44.0499 72.1549 42.5667 71.5841 40.9557H82.3623V52.3394C79.0503 52.0153 75.9468 49.5158 73.5848 45.3768ZM71.1015 39.482H82.3623V28.6858H69.4818C69.5469 32.5895 70.1276 36.2548 71.1015 39.482ZM83.836 52.3393V40.9557H94.6138C94.0431 42.5667 93.3704 44.0499 92.6131 45.3768C90.2512 49.5156 87.1479 52.0151 83.836 52.3393ZM83.836 39.482H95.0964C96.0703 36.2548 96.651 32.5895 96.7161 28.6858H83.836V39.482ZM93.8931 46.1072C94.7731 44.5652 95.54 42.8349 96.173 40.9557H103.779C100.523 46.1208 95.3861 49.9809 89.3295 51.5737C91.0695 50.2299 92.612 48.3521 93.8931 46.1072ZM96.6329 39.482H104.637C106.372 36.25 107.4 32.5825 107.515 28.6858H98.19C98.1276 32.5502 97.5758 36.2107 96.6329 39.482Z" fill="white"/>
</svg>
