<svg width="580" height="107" viewBox="0 0 580 107" fill="none" xmlns="http://www.w3.org/2000/svg">
<path d="M36.1833 0C14.9518 0 0 16.5418 0 37.7033C0 58.4178 15.2508 75.4067 37.529 75.4067C60.5548 75.4067 69.9744 60.5042 71.6191 54.3942H62.4985C60.4052 57.6727 54.1255 66.6142 37.529 66.6142C20.484 66.6142 9.56915 53.202 9.56915 37.7033V37.5543H72.5162C72.2172 15.9457 57.5644 0 36.1833 0ZM36.1833 8.19638C50.0885 8.19638 59.3586 16.8398 62.1995 29.507H10.1672C12.8585 16.9889 22.1287 8.19638 36.1833 8.19638Z" fill="white"/>
<path d="M154.978 57.8217V107H164.397V1.7883H154.978V16.8398C153.183 12.3691 144.212 0 126.42 0C106.085 0 90.3859 15.3496 90.3859 37.7033C90.3859 60.0571 106.085 75.4067 126.42 75.4067C144.511 75.4067 153.034 62.7396 154.978 57.8217ZM155.277 37.7033C155.277 53.5 143.913 66.6142 127.765 66.6142C111.169 66.6142 100.105 53.5 100.105 37.7033C100.105 21.7577 111.169 8.79248 127.765 8.79248C143.913 8.79248 155.277 21.7577 155.277 37.7033Z" fill="white"/>
<path d="M226.182 75.4067C246.367 75.4067 259.076 62.1435 259.076 43.2173V1.7883H249.656V41.876C249.656 56.7786 240.984 66.4652 226.033 66.4652C211.081 66.4652 202.558 56.7786 202.558 41.876V1.7883H193.139V43.2173C193.139 62.1435 205.549 75.4067 226.182 75.4067Z" fill="white"/>
<path d="M287.926 73.6184H297.196V1.7883H287.926V73.6184Z" fill="white"/>
<path d="M454.102 0C433.17 0 416.723 16.3928 416.723 37.7033C416.723 59.163 433.17 75.4067 454.102 75.4067C475.035 75.4067 491.482 59.163 491.482 37.7033C491.482 16.3928 475.035 0 454.102 0ZM454.102 66.6142C437.954 66.6142 426.441 53.7981 426.441 37.7033C426.441 21.7577 437.954 8.64345 454.102 8.64345C470.4 8.64345 481.913 21.6086 481.913 37.7033C481.913 53.9471 470.4 66.6142 454.102 66.6142Z" fill="white"/>
<path d="M568.487 73.6184H580L549.947 37.4053L580 1.7883H568.637L544.265 30.6992L520.193 1.7883H507.932L538.284 37.8524L508.082 73.6184H519.296L543.966 44.4095L568.487 73.6184Z" fill="white"/>
<path d="M359.027 0.0382825C338.842 0.0382825 326.133 13.3015 326.133 32.2277V73.6567H335.553V33.5689C335.553 18.6664 344.225 8.97978 359.177 8.97978C374.129 8.97978 382.651 18.6664 382.651 33.5689V73.6567H392.071V32.2277C392.071 13.3015 379.661 0.0382825 359.027 0.0382825Z" fill="white"/>
</svg>
